<svg width="600" height="300" viewBox="0 0 600 300" xmlns="http://www.w3.org/2000/svg">
  <defs>
    <linearGradient id="bgGen" x1="0%" y1="0%" x2="100%" y2="100%">
      <stop offset="0%" style="stop-color:#1e1e1e"/>
      <stop offset="100%" style="stop-color:#252526"/>
    </linearGradient>
  </defs>
  <rect width="600" height="300" fill="url(#bgGen)"/>
  <rect x="150" y="60" width="300" height="180" rx="8" fill="#1e1e1e" stroke="#3c3c3c" stroke-width="2"/>
  <rect x="150" y="60" width="300" height="28" rx="8" fill="#323233"/>
  <circle cx="170" cy="74" r="5" fill="#ff5f56"/>
  <circle cx="188" cy="74" r="5" fill="#ffbd2e"/>
  <circle cx="206" cy="74" r="5" fill="#27ca40"/>
  <rect x="175" y="105" width="80" height="7" rx="2" fill="#569cd6" opacity="0.8"/>
  <rect x="265" y="105" width="50" height="7" rx="2" fill="#ce9178" opacity="0.8"/>
  <rect x="175" y="122" width="110" height="7" rx="2" fill="#4ec9b0" opacity="0.8"/>
  <rect x="175" y="139" width="60" height="7" rx="2" fill="#c586c0" opacity="0.8"/>
  <rect x="245" y="139" width="90" height="7" rx="2" fill="#9cdcfe" opacity="0.8"/>
  <rect x="175" y="156" width="70" height="7" rx="2" fill="#dcdcaa" opacity="0.8"/>
  <rect x="255" y="156" width="60" height="7" rx="2" fill="#569cd6" opacity="0.8"/>
  <text x="300" y="200" text-anchor="middle" fill="#2c9ffe" font-size="22" font-weight="bold">&lt;/&gt;</text>
</svg>
